<svg xmlns="http://www.w3.org/2000/svg" viewBox="0 0 200 200" width="100%" height="100%">
  <defs>
    <linearGradient id="wiperGrad" x1="0%" y1="0%" x2="100%" y2="100%">
      <stop offset="0%" stop-color="#3B82F6"/>
      <stop offset="100%" stop-color="#1D4ED8"/>
    </linearGradient>
  </defs>
  <circle cx="100" cy="100" r="95" fill="#FFFFFF" stroke="#1D4ED8" stroke-width="8"/>
  <!-- Umbrella Canopy -->
  <path d="M45,108 C45,68 70,55 100,55 C130,55 155,68 155,108 C145,103 135,103 125,108 C115,103 105,103 95,108 C85,103 75,103 65,108 C55,103 48,105 45,108 Z" fill="url(#wiperGrad)" stroke="#1E40AF" stroke-width="3"/>
  <!-- Canopy Segments -->
  <path d="M100,55 Q85,85 75,106" stroke="#93C5FD" stroke-width="2" fill="none"/>
  <path d="M100,55 Q115,85 125,106" stroke="#93C5FD" stroke-width="2" fill="none"/>
  <!-- Umbrella Tip -->
  <line x1="100" y1="48" x2="100" y2="55" stroke="#1E293B" stroke-width="4" stroke-linecap="round"/>
  <!-- Umbrella Shaft & Handle -->
  <line x1="100" y1="106" x2="100" y2="140" stroke="#1E293B" stroke-width="5" stroke-linecap="round"/>
  <path d="M100,140 C100,148 112,148 112,140" stroke="#1E293B" stroke-width="5" fill="none" stroke-linecap="round"/>
  <!-- Text -->
  <text x="100" y="38" font-family="system-ui, sans-serif" font-weight="900" font-size="22" fill="#1D4ED8" text-anchor="middle" letter-spacing="2">WIPER</text>
  <text x="100" y="180" font-family="system-ui, sans-serif" font-weight="700" font-size="10" fill="#1E293B" text-anchor="middle" letter-spacing="1">ONE KENYA ALLIANCE</text>
</svg>
